# xmcd
# 
# Track frame offsets:
#     183
#     14065
#     26515
#     40420
#     53135
#     66355
#     79320
#     91460
#     104950
#     116520
#     128108
#     144288
#     156180
#     171863
#     183555
#     194800
#     205830
#     217320
#     233093
#     244688
#     258023
#     270468
#     282548
#     296343
#     315338
# 
# Disc length: 4367
# 
# Revision: 10
# Processed by: cddbd v1.5.2PL0 Copyright (c) Steve Scherf et al.
# Submitted via: fre:ac v1.0.17
# 
DISCID=80110d19
DTITLE=Various Artist - Blues With A Feelin' 1
DYEAR=1992
DGENRE=Blues
TTITLE0=Little Walter - Blues With A Feeling
TTITLE1=John Lee Hooker - Hobo Blues
TTITLE2=Howlin' Wolf - Smokestack Lightnin'
TTITLE3=Sonny Boy Williamson - Keep It To Yourself
TTITLE4=Muddy Waters - She Moves Me
TTITLE5=Big Joe Williams - Don't Want No Big Fat Woman
TTITLE6=Elmore James - Mean Mistreatin' Mama
TTITLE7=BB King - Three o'Clock Blues
TTITLE8=Sonny Boy Williamson - Key To Your Door
TTITLE9=Howlin' Wolf - Poor Boy
TTITLE10=John Lee Hooker - Wednesday Evening Blues
TTITLE11=Johnny Guitar Watson - One Room Country Shack
TTITLE12=Mike Bloomfield - Don't You Lie To Me
TTITLE13=Little Walter - My Babe
TTITLE14=Muddy Waters - Crawlin' Kingsnake
TTITLE15=Big Joe Williams - Sinking Blues
TTITLE16=Sonny Boy Williamson - Stop Crying (All Your Trowing Away Is Mine)
TTITLE17=Lightning Hopkins - Coffee For Mama
TTITLE18=Little Walter - As Long As I Have You
TTITLE19=Muddy Waters - Rollin' And Tumblin'
TTITLE20=Howlin' Wolf - Little Baby
TTITLE21=John Lee Hooker - Frisco
TTITLE22=Memphis Slim - My Baby
TTITLE23=Mike Bloomfield - Eyesight To The Blind
TTITLE24=Little Walter - Juke
EXTD=
EXTT0=Little Walter
EXTT1=John Lee Hooker
EXTT2=Howlin' Wolf
EXTT3=Sonny Boy Williams
EXTT4=Muddy Waters
EXTT5=Big Joe Williams
EXTT6=Elmore James
EXTT7=BB King
EXTT8=Sonny Boy Williamson
EXTT9=Howlin' Wolf
EXTT10=John Lee Hooker
EXTT11=Johnny Guitar Watson
EXTT12=Mike Bloomfield
EXTT13=Little Walter
EXTT14=Muddy Waters
EXTT15=Big Joe Williams
EXTT16=Sonny Boy Williamson
EXTT17=Lightning Hopkins
EXTT18=Little Walter
EXTT19=Muddy Waters
EXTT20=Howlin' Wolf
EXTT21=John Lee Hooker
EXTT22=Memphis Slim
EXTT23=Mike Bloomfield
EXTT24=
PLAYORDER=
